<svg width="128" height="128" viewBox="0 0 128 128" fill="none" xmlns="http://www.w3.org/2000/svg">
<mask id="mask0_6248_325802" style="mask-type:alpha" maskUnits="userSpaceOnUse" x="0" y="0" width="128" height="128">
<circle cx="64" cy="64" r="64" fill="#C4C4C4"/>
</mask>
<g mask="url(#mask0_6248_325802)">
<path d="M64 128C99.3462 128 128 99.3462 128 64C128 28.6538 99.3462 0 64 0C28.6538 0 0 28.6538 0 64C0 99.3462 28.6538 128 64 128Z" fill="black"/>
<path d="M82.0971 71.0944C94.1835 73.3248 102.404 77.7152 102.404 82.768C102.404 90.08 85.2107 96 64.0043 96C42.7979 96 25.6042 90.0768 25.6042 82.768C25.6042 77.7152 33.8283 73.3248 45.9115 71.0944C51.1627 72.4576 57.3643 73.2416 64.0043 73.2416C70.6443 73.2416 76.8459 72.4544 82.0971 71.0944ZM77.4699 49.664C87.7355 51.3728 94.8075 54.9664 94.8075 59.1296C94.8075 64.9376 81.0155 69.648 64.0043 69.648C46.9931 69.648 33.201 64.9376 33.201 59.1296C33.201 54.9696 40.273 51.3728 50.5387 49.664C54.4843 50.6656 59.0859 51.2384 64.0043 51.2384C68.9227 51.2384 73.5243 50.6624 77.4699 49.664ZM64.1451 32C76.8843 32 87.2139 35.5648 87.2139 39.9648C87.2139 44.3616 76.8843 47.9264 64.1451 47.9264C51.4058 47.9264 41.0762 44.3616 41.0762 39.9648C41.0762 35.5648 51.4058 32 64.1451 32Z" fill="white"/>
</g>
</svg>
