<svg width="128" height="128" viewBox="0 0 128 128" fill="none" xmlns="http://www.w3.org/2000/svg">
<path fill-rule="evenodd" clip-rule="evenodd" d="M64 0C99.3408 0 128 28.6592 128 64C128 99.3408 99.3408 128 64 128C28.6592 128 0 99.3408 0 64C0 28.6592 28.6592 0 64 0Z" fill="#0055D5"/>
<path fill-rule="evenodd" clip-rule="evenodd" d="M34.8202 42.3452C34.8202 42.3452 27.9338 36.8412 27.4602 50.4348C26.9866 60.9692 26.9994 81.4236 31.8762 91.0876C33.937 94.7228 36.689 93.6092 41.809 89.9868C46.2634 86.6972 62.3786 71.8492 69.201 65.334C76.0234 58.8188 89.8602 40.1308 92.7402 52.8284C93.8794 58.166 95.2874 62.6972 94.2122 74.5372C93.8794 78.1852 92.3178 80.95 85.201 76.0092C79.825 72.5532 74.7178 68.8412 74.7178 68.8412C74.7178 68.8412 73.7322 67.0748 71.4026 69.942C69.5722 72.2332 68.6506 72.7964 71.5818 74.5372C74.5258 76.278 89.4122 86.5436 95.121 88.1436C99.8314 89.5132 102.519 89.4876 102.66 80.2332C102.635 72.886 102.212 51.8556 99.537 42.8956C97.5146 37.3148 94.545 34.7804 88.1322 41.0524C81.7194 47.3244 61.4954 66.934 50.4362 75.8172C43.1018 81.3212 39.9658 86.2876 37.201 77.11C35.2554 70.1596 32.7338 48.5276 40.6954 52.6492C45.6746 55.03 48.1578 55.0172 46.2122 56.5148C44.2666 57.9996 38.673 63.1324 38.673 63.1324C38.673 63.1324 36.945 64.5276 37.7514 67.5484C38.5578 69.6604 38.5578 70.71 42.897 66.6268C47.2362 62.5436 50.4362 59.4588 50.4362 59.4588C50.4362 59.4588 51.1274 58.3708 53.1882 60.3804C55.249 62.39 55.5818 62.9532 55.5818 62.9532C55.5818 62.9532 56.1322 64.4508 58.3338 61.8524C60.5482 59.254 61.969 57.6668 57.7834 55.2348C53.6106 52.7772 34.8202 42.3452 34.8202 42.3452Z" fill="white"/>
</svg>
