<svg width="128" height="128" viewBox="0 0 128 128" fill="none" xmlns="http://www.w3.org/2000/svg">
<path d="M64 128C99.3461 128 128 99.3461 128 64C128 28.6538 99.3461 0 64 0C28.6538 0 0 28.6538 0 64C0 99.3461 28.6538 128 64 128Z" fill="#F0B90B"/>
<path fill-rule="evenodd" clip-rule="evenodd" d="M36.7629 47.7445L64.0272 20.4805L74.8981 31.3516L47.6341 58.6155L36.7629 47.7445ZM36.7821 80.3243L80.3536 36.7541L91.2245 47.6253L47.6532 91.1952L36.7821 80.3243ZM96.648 53.0793L53.0778 96.6491L63.9488 107.521L107.519 63.9488L96.648 53.0778V53.0793ZM20.4805 64.0224L31.3516 53.1513L42.2228 64.0224L31.3516 74.8939L20.4805 64.0224Z" fill="#FFFDFA"/>
</svg>
