<svg width="128" height="128" viewBox="0 0 128 128" fill="none" xmlns="http://www.w3.org/2000/svg">
<g clip-path="url(#clip0_6257_332403)">
<path d="M63.9995 127.995C99.3431 127.995 127.995 99.3431 127.995 63.9995C127.995 28.656 99.3431 0.00439453 63.9995 0.00439453C28.656 0.00439453 0.00439453 28.656 0.00439453 63.9995C0.00439453 99.3431 28.656 127.995 63.9995 127.995Z" fill="#F9FAFB"/>
<path d="M104.626 114.366C95.26 122.061 83.9005 126.938 71.8701 128.429C59.8398 129.92 47.6335 127.963 36.6721 122.786C25.7107 117.609 16.4451 109.426 9.95384 99.1877C3.46256 88.9498 0.0126257 77.0788 0.00562591 64.9564C-0.00137386 52.8341 3.43485 40.9591 9.9143 30.7137C16.3937 20.4684 25.6499 12.2741 36.6053 7.08466C47.5607 1.89526 59.7647 -0.075776 71.7968 1.40099C83.8288 2.87776 95.194 7.74159 104.569 15.4263L91.6604 31.1761C85.2682 25.9365 77.5193 22.6201 69.3157 21.6131C61.112 20.6062 52.7911 21.95 45.3215 25.4881C37.8519 29.0263 31.5408 34.6133 27.123 41.5988C22.7052 48.5842 20.3623 56.6808 20.3671 64.946C20.3719 73.2112 22.7241 81.3051 27.15 88.2854C31.5759 95.2658 37.8934 100.845 45.367 104.375C52.8407 107.905 61.1632 109.239 69.3657 108.222C77.5682 107.206 85.3132 103.881 91.6993 98.6335L104.626 114.366Z" fill="url(#paint0_linear_6257_332403)"/>
<path d="M63.9997 117.669C93.1317 117.669 116.748 94.053 116.748 64.9211C116.748 35.7891 93.1317 12.1729 63.9997 12.1729C34.8677 12.1729 11.2515 35.7891 11.2515 64.9211C11.2515 94.053 34.8677 117.669 63.9997 117.669Z" fill="white"/>
<path d="M92.7245 56.4227H86.7693C83.4908 47.3221 74.6746 41.0825 63.0485 41.0825H43.928V56.4227H37.2866V61.926H43.928V67.6975H37.2866V73.2015H43.928V88.3573H63.0485C74.5395 88.3573 83.2896 82.1677 86.6525 73.2015H92.7245V67.6975H87.9905C88.1111 66.7096 88.1727 65.7154 88.1749 64.7202V64.5858C88.1749 63.6828 88.1242 62.796 88.0405 61.9241H92.7414V56.4227H92.7245ZM49.2808 45.984H63.0485C71.5804 45.984 77.92 50.1831 80.8479 56.4058H49.2808V45.984ZM63.0485 83.4058H49.2808V73.1846H80.8141C77.87 79.3073 71.5467 83.4058 63.0485 83.4058V83.4058ZM82.6378 64.8384C82.6391 65.79 82.5718 66.7406 82.4365 67.6826H49.2808V61.9111H82.4553C82.5765 62.8367 82.6381 63.7692 82.6397 64.7027L82.6378 64.8384Z" fill="url(#paint1_linear_6257_332403)"/>
</g>
<defs>
<linearGradient id="paint0_linear_6257_332403" x1="45.96" y1="7.95976" x2="66.027" y2="119.217" gradientUnits="userSpaceOnUse">
<stop stop-color="#27D3A2"/>
<stop offset="1" stop-color="#9388FD"/>
</linearGradient>
<linearGradient id="paint1_linear_6257_332403" x1="-0.921277" y1="34.3853" x2="-0.921277" y2="93.3211" gradientUnits="userSpaceOnUse">
<stop stop-color="#283947"/>
<stop offset="1" stop-color="#657786"/>
</linearGradient>
<clipPath id="clip0_6257_332403">
<rect width="128" height="128" fill="white"/>
</clipPath>
</defs>
</svg>
