<svg width="128" height="128" viewBox="0 0 128 128" fill="none" xmlns="http://www.w3.org/2000/svg">
<mask id="mask0_6270_346573" style="mask-type:alpha" maskUnits="userSpaceOnUse" x="0" y="0" width="128" height="128">
<circle cx="64" cy="64" r="64" fill="#C4C4C4"/>
</mask>
<g mask="url(#mask0_6270_346573)">
<path d="M64 128C99.3472 128 128 99.3472 128 64C128 28.6528 99.3472 0 64 0C28.6528 0 0 28.6528 0 64C0 99.3472 28.6528 128 64 128Z" fill="white"/>
<path d="M64 0C28.672 0 0 28.672 0 64C0 99.328 28.672 128 64 128C99.328 128 128 99.328 128 64C128 28.672 99.328 0 64 0ZM93.056 90.752C85.504 99.072 74.752 103.872 63.616 103.872H63.552C52.224 103.872 41.408 99.008 33.856 90.56C26.176 81.984 22.656 70.976 23.872 59.52C25.856 41.216 40.576 26.432 58.88 24.32C60.416 24.128 62.016 24.064 63.552 24.064C72.384 24.064 80.832 26.944 87.872 32.384C88.32 32.704 88.576 33.216 88.576 33.792C88.576 34.368 88.384 34.88 87.936 35.264L83.712 39.04C83.264 39.424 82.688 39.68 82.048 39.68C81.536 39.68 81.024 39.552 80.64 39.232C75.584 35.712 69.632 33.856 63.552 33.856C54.976 33.856 46.784 37.568 41.088 43.968C35.328 50.432 32.64 58.816 33.664 67.456C35.2 81.216 46.336 92.352 60.16 93.888C61.312 94.016 62.464 94.08 63.616 94.08C71.68 94.08 79.232 90.88 84.992 85.12C85.44 84.672 86.08 84.352 86.784 84.352C87.232 84.352 87.744 84.48 88.128 84.736L92.8 87.808C93.248 88.128 93.568 88.576 93.632 89.152C93.632 89.792 93.44 90.368 93.056 90.752ZM96 59.648C90.688 59.648 86.336 55.296 86.336 49.984C86.336 44.672 90.688 40.32 96 40.32C101.312 40.32 105.664 44.672 105.664 49.984C105.664 55.296 101.312 59.648 96 59.648Z" fill="url(#paint0_linear_6270_346573)"/>
</g>
<defs>
<linearGradient id="paint0_linear_6270_346573" x1="114.5" y1="26.5" x2="24" y2="102.5" gradientUnits="userSpaceOnUse">
<stop stop-color="#F1C974"/>
<stop offset="1" stop-color="#E5813F"/>
</linearGradient>
</defs>
</svg>
