<svg width="128" height="128" viewBox="0 0 128 128" fill="none" xmlns="http://www.w3.org/2000/svg">
<path d="M64 128C99.3461 128 128 99.3461 128 64C128 28.6538 99.3461 0 64 0C28.6538 0 0 28.6538 0 64C0 99.3461 28.6538 128 64 128Z" fill="#F4B731"/>
<path fill-rule="evenodd" clip-rule="evenodd" d="M38.5995 30.667H65.2677C81.4885 30.667 93.785 39.4828 98.3594 52.3093H106.666V60.0631H100.109C100.237 61.2881 100.303 62.5361 100.303 63.8044V63.9953C100.303 65.4012 100.221 66.806 100.057 68.2017H106.666V75.9553H98.2005C93.5056 88.6039 81.3061 97.3356 65.2677 97.3356H38.5995V75.9527H29.332V68.1991H38.5995V60.0615H29.332V52.3078H38.5995V30.6655V30.667ZM46.0544 75.9537V90.3799H65.2677C77.1232 90.3799 85.9317 84.6023 90.032 75.9537H46.0544ZM92.3152 68.2007H46.0544V60.0631H92.3285C92.4992 61.3431 92.5877 62.6567 92.5877 63.9943V64.1836C92.5882 65.5271 92.4976 66.8684 92.3152 68.1991V68.2007ZM65.2677 37.6099C77.1776 37.6099 86.0122 43.5391 90.088 52.3093H46.0544V37.6099H65.2677Z" fill="#FFFDFA"/>
</svg>
