<svg width="128" height="128" viewBox="0 0 128 128" fill="none" xmlns="http://www.w3.org/2000/svg">
<mask id="mask0_6270_346603" style="mask-type:alpha" maskUnits="userSpaceOnUse" x="0" y="0" width="128" height="128">
<path d="M64 128C99.3461 128 128 99.3461 128 64C128 28.6538 99.3461 0 64 0C28.6538 0 0 28.6538 0 64C0 99.3461 28.6538 128 64 128Z" fill="#0033AD"/>
</mask>
<g mask="url(#mask0_6270_346603)">
</g>
<path d="M64 128C99.3462 128 128 99.3462 128 64C128 28.6538 99.3462 0 64 0C28.6538 0 0 28.6538 0 64C0 99.3462 28.6538 128 64 128Z" fill="url(#paint0_linear_6270_346603)"/>
<path d="M78.1109 33.1851L35.5557 94.8098H48.621L91.3971 33.1851H78.1109Z" fill="white"/>
<path d="M49.9821 33.1851L62.5031 51.3438L55.9704 61.2486L36.6445 33.1851H49.9821Z" fill="url(#paint1_linear_6270_346603)"/>
<path d="M79.379 94.8148L65.4971 74.7302L72.7348 65.1006L92.4444 94.8148H79.379Z" fill="#6966FF"/>
<defs>
<linearGradient id="paint0_linear_6270_346603" x1="53.3333" y1="17.7778" x2="71.1111" y2="135.111" gradientUnits="userSpaceOnUse">
<stop stop-color="#3E3E58"/>
<stop offset="1" stop-color="#232331"/>
</linearGradient>
<linearGradient id="paint1_linear_6270_346603" x1="46.988" y1="37.0369" x2="65.1409" y2="58.7176" gradientUnits="userSpaceOnUse">
<stop stop-color="white"/>
<stop offset="1" stop-color="white" stop-opacity="0.55"/>
</linearGradient>
</defs>
</svg>
