<svg width="128" height="128" viewBox="0 0 128 128" fill="none" xmlns="http://www.w3.org/2000/svg">
<mask id="mask0_6270_346591" style="mask-type:alpha" maskUnits="userSpaceOnUse" x="0" y="0" width="128" height="128">
<circle cx="64" cy="64" r="64" fill="#C4C4C4"/>
</mask>
<g mask="url(#mask0_6270_346591)">
</g>
<g filter="url(#filter0_i_6270_346591)">
<path d="M128 64C128 99.346 99.346 128 64 128C28.6538 128 0 99.346 0 64C0 28.6538 28.6538 0 64 0C99.346 0 128 28.6538 128 64Z" fill="url(#paint0_linear_6270_346591)"/>
</g>
<path d="M36.5345 56.6227C37.3488 58.3555 39.3643 61.7805 39.3643 61.7805L62.6644 23.4365L39.9241 39.2443C38.5691 40.1441 37.4574 41.3622 36.6871 42.7909C35.6514 44.9463 35.1011 47.3009 35.0747 49.69C35.0484 52.0791 35.5465 54.4452 36.5345 56.6227Z" fill="white"/>
<path d="M27.3018 69.2485C27.5585 72.9165 28.5995 76.4869 30.355 79.7221C32.1105 82.9564 34.5401 85.7805 37.4809 88.0051L62.6336 105.465C62.6336 105.465 46.8967 82.8878 33.623 60.4225C32.2792 58.0491 31.3758 55.454 30.9561 52.7618C30.7703 51.5426 30.7703 50.3027 30.9561 49.0835C30.61 49.7219 29.9382 51.029 29.9382 51.029C28.5922 53.7615 27.6757 56.6835 27.2204 59.6929C26.9582 62.8741 26.9855 66.0722 27.3018 69.2485Z" fill="white"/>
<path d="M91.4712 72.2788C90.6573 70.5463 88.6417 67.1211 88.6417 67.1211L65.3413 105.465L88.082 89.6678C89.4368 88.7673 90.5482 87.5495 91.3189 86.1208C92.3555 83.9637 92.9072 81.6074 92.9333 79.2169C92.9595 76.8255 92.461 74.4575 91.4712 72.2788Z" fill="white"/>
<path d="M100.704 59.6525C100.447 55.9848 99.4064 52.4139 97.6504 49.1791C95.8954 45.9443 93.4652 43.1202 90.5248 40.896L65.3718 23.4365C65.3718 23.4365 81.0988 46.0133 94.3828 68.4786C95.7223 70.8524 96.6228 73.4476 97.0393 76.1392C97.225 77.3588 97.225 78.5982 97.0393 79.8178C97.3854 79.1796 98.057 77.8717 98.057 77.8717C99.4028 75.1395 100.32 72.2171 100.775 69.2082C101.041 66.0273 101.016 62.8291 100.704 59.6525Z" fill="white"/>
<path d="M36.687 42.7909C37.4573 41.3622 38.569 40.1441 39.924 39.2443L62.6643 23.4365L39.364 61.7906C39.364 61.7906 37.3282 58.3657 36.5343 56.6329C35.5449 54.454 35.0459 52.0861 35.0723 49.6951C35.0986 47.304 35.6498 44.9476 36.687 42.7909ZM27.3018 69.2487C27.5585 72.9166 28.5995 76.4871 30.355 79.7223C32.1105 82.9565 34.5401 85.7806 37.4809 88.0053L62.6336 105.465C62.6336 105.465 46.8967 82.888 33.623 60.4227C32.2792 58.0493 31.3758 55.4542 30.9561 52.762C30.7703 51.5428 30.7703 50.3028 30.9561 49.0837C30.61 49.722 29.9382 51.0292 29.9382 51.0292C28.5922 53.7617 27.6757 56.6837 27.2204 59.6931C26.9582 62.8742 26.9855 66.0724 27.3018 69.2487ZM91.4308 72.2884C90.6159 70.5558 88.6003 67.1309 88.6003 67.1309L65.3414 105.465L88.082 89.6675C89.4368 88.767 90.5483 87.5492 91.319 86.1205C92.3556 83.9634 92.9073 81.6071 92.9334 79.2166C92.9595 76.8251 92.4611 74.4571 91.4713 72.2784L91.4308 72.2884ZM100.663 59.6627C100.406 55.9949 99.3649 52.424 97.6099 49.1892C95.854 45.9544 93.4247 43.1304 90.4843 40.9062L65.3718 23.4365C65.3718 23.4365 81.0988 46.0133 94.3829 68.4785C95.7224 70.8524 96.6229 73.4476 97.0393 76.1392C97.225 77.3588 97.225 78.5982 97.0393 79.8178C97.3855 79.1796 98.057 77.8717 98.057 77.8717C99.4028 75.1395 100.32 72.2171 100.775 69.2082C101.041 66.0273 101.016 62.8291 100.704 59.6525L100.663 59.6627Z" fill="white"/>
<defs>
<filter id="filter0_i_6270_346591" x="0" y="0" width="128" height="132" filterUnits="userSpaceOnUse" color-interpolation-filters="sRGB">
<feFlood flood-opacity="0" result="BackgroundImageFix"/>
<feBlend mode="normal" in="SourceGraphic" in2="BackgroundImageFix" result="shape"/>
<feColorMatrix in="SourceAlpha" type="matrix" values="0 0 0 0 0 0 0 0 0 0 0 0 0 0 0 0 0 0 127 0" result="hardAlpha"/>
<feOffset dy="4"/>
<feGaussianBlur stdDeviation="13"/>
<feComposite in2="hardAlpha" operator="arithmetic" k2="-1" k3="1"/>
<feColorMatrix type="matrix" values="0 0 0 0 0 0 0 0 0 0 0 0 0 0 0 0 0 0 0.06 0"/>
<feBlend mode="normal" in2="shape" result="effect1_innerShadow_6270_346591"/>
</filter>
<linearGradient id="paint0_linear_6270_346591" x1="85.2588" y1="143.171" x2="-39.1511" y2="-75.8079" gradientUnits="userSpaceOnUse">
<stop stop-color="#44BCF0"/>
<stop offset="0.378795" stop-color="#7298F8"/>
<stop offset="1" stop-color="#A099FF"/>
</linearGradient>
</defs>
</svg>
