<svg width="128" height="128" viewBox="0 0 128 128" fill="none" xmlns="http://www.w3.org/2000/svg">
<path d="M64 128C99.3462 128 128 99.3462 128 64C128 28.6538 99.3462 0 64 0C28.6538 0 0 28.6538 0 64C0 99.3462 28.6538 128 64 128Z" fill="white"/>
<path d="M61.0555 14.3805V14.4332C61.1082 14.697 61.1082 15.0136 61.1082 15.3302V53.3732C61.0555 53.5842 60.8972 53.637 60.7389 53.7425C59.6308 54.2701 58.5756 54.745 57.4675 55.2199C55.9373 55.9058 54.3544 56.6445 52.8243 57.3305L47.284 59.8631C45.7539 60.5491 44.2237 61.235 42.7463 61.9209C40.9523 62.7652 39.1056 63.5566 37.3116 64.4009C35.7814 65.0868 34.2513 65.8255 32.6684 66.5114C31.402 67.0918 30.1357 67.6195 28.9221 68.1999C28.8166 68.2526 28.7111 68.3054 28.6055 68.3054C28.5528 68.3054 28.5528 68.3054 28.5 68.2526L29.9246 65.8782C32.6684 61.3405 35.3593 56.8556 38.1031 52.3179C41.0051 47.4636 43.9599 42.6093 46.8619 37.755C49.5529 33.27 52.2966 28.7851 54.9876 24.3001C56.9399 21.0287 58.9449 17.7574 60.8972 14.486C60.9499 14.3805 61.0027 14.3277 61.0027 14.2222H61.0555C61.0027 14.2749 61.0555 14.3277 61.0555 14.3805Z" fill="#8A92B2"/>
<path d="M93.4472 68.2508L93.4999 68.3036L85.7436 72.894L61.3666 87.2986C61.261 87.3514 61.1555 87.4042 61.1028 87.4569C60.9445 87.4569 60.9445 87.2986 60.9445 87.2459V86.771V54.1628C60.9445 54.0045 60.9445 53.7934 60.9972 53.6351C61.05 53.4241 61.2083 53.4769 61.3666 53.5296C62.0525 53.8462 62.7912 54.1628 63.4771 54.4794C65.5349 55.4291 67.5927 56.3789 69.6505 57.2759C71.4445 58.0673 73.1857 58.9116 74.9797 59.703C76.7737 60.4945 78.5677 61.3387 80.3617 62.1302C81.8918 62.8161 83.4747 63.5548 85.0049 64.2407C86.5351 64.9267 88.118 65.6654 89.6482 66.3513C90.8617 66.8789 92.0753 67.4593 93.2889 67.987C93.2889 68.1453 93.3416 68.198 93.4472 68.2508Z" fill="#454A75"/>
<path d="M61.0555 120.224C61.0555 120.277 61.0027 120.33 61.0027 120.383H60.9499C60.9499 120.277 60.8444 120.224 60.7916 120.119C57.5203 115.528 54.2489 110.885 50.9775 106.295C47.6534 101.599 44.2765 96.85 40.9523 92.154C37.7337 87.6162 34.4623 83.0258 31.2437 78.488C30.3995 77.2745 29.5553 76.1137 28.7111 74.9001C28.6583 74.7946 28.6055 74.7418 28.5 74.5835C28.6583 74.5835 28.7638 74.689 28.8166 74.7418C33.4071 77.4328 37.9448 80.1237 42.5353 82.8147C47.8117 85.9278 53.0353 89.0409 58.3117 92.154L61.0027 93.7369C61.1082 93.8424 61.1082 93.9479 61.1082 94.0535V119.486C61.1082 119.75 61.1082 120.013 61.0555 120.224Z" fill="#8A92B2"/>
<path d="M28.4445 68.3551V68.3023C30.1329 67.5636 31.7686 66.7721 33.457 66.0334C35.6204 65.0309 37.7837 64.0812 39.947 63.0787C41.5827 62.34 43.2712 61.5485 44.9069 60.8098C47.334 59.7018 49.7084 58.6465 52.1355 57.5384C53.7712 56.7997 55.4069 56.061 57.0954 55.2696C58.2562 54.7419 59.4698 54.2143 60.6306 53.6866C60.7361 53.6339 60.8944 53.5811 60.9472 53.4756C60.9999 53.4756 60.9999 53.5284 60.9472 53.5811V87.0863C60.9472 87.2446 60.8944 87.4029 60.9999 87.5084C60.8944 87.6667 60.7889 87.5084 60.7361 87.4557C60.2612 87.1919 59.7863 86.928 59.3115 86.6115C49.128 80.5963 38.8918 74.5285 28.7083 68.5134C28.6555 68.4606 28.55 68.4078 28.4445 68.3551Z" fill="#62688F"/>
<path d="M93.3444 74.5835H93.3972C93.3972 74.689 93.2916 74.7946 93.2389 74.9001C83.5303 88.566 73.8217 102.285 64.1131 115.951C63.1106 117.375 62.0553 118.8 61.0528 120.224C61 120.172 61 120.119 61 120.066V119.75V94.159V93.6841C63.2161 92.365 65.3794 91.0987 67.5955 89.7796C76.1433 84.7142 84.6911 79.7016 93.1861 74.6363C93.2389 74.689 93.2916 74.6363 93.3444 74.5835Z" fill="#62688F"/>
<path d="M61.0014 53.5816V53.4761V53.1595V14.8528C61.0014 14.6945 60.9486 14.589 61.0542 14.4307C71.7653 32.2122 82.4764 49.9409 93.1348 67.7224C93.2403 67.8807 93.3986 68.0918 93.4513 68.3028C92.7126 68.039 92.0267 67.6697 91.3408 67.3531C90.4966 66.9837 89.5996 66.5616 88.7553 66.1923C88.2277 65.9285 87.6473 65.7174 87.1196 65.4536C86.2227 65.0315 85.3257 64.6621 84.4287 64.24C83.901 64.0289 83.3734 63.7651 82.8458 63.5013L79.3633 61.9184C78.7829 61.6546 78.2025 61.3907 77.5693 61.1269L75.0367 60.0189C74.509 59.8078 73.9814 59.544 73.4537 59.2802L69.9713 57.6972C69.3909 57.4334 68.8105 57.1696 68.1773 56.9058L65.6446 55.7977C65.0642 55.5339 64.5366 55.2701 63.9562 55.0063C62.9537 54.5314 61.9512 54.0565 60.8959 53.6344C61.0542 53.5816 61.0014 53.5816 61.0014 53.5816Z" fill="#62688F"/>
</svg>
