<svg width="128" height="128" viewBox="0 0 128 128" fill="none" xmlns="http://www.w3.org/2000/svg">
<path d="M64 128C99.3462 128 128 99.3462 128 64C128 28.6538 99.3462 0 64 0C28.6538 0 0 28.6538 0 64C0 99.3462 28.6538 128 64 128Z" fill="#4671F0"/>
<mask id="mask0_6438_349571" style="mask-type:alpha" maskUnits="userSpaceOnUse" x="0" y="0" width="128" height="128">
<circle cx="64" cy="64" r="64" fill="#4671F0"/>
</mask>
<g mask="url(#mask0_6438_349571)">
<path d="M88.2478 38.2569L85.4646 54.9397L75.573 43.2965L88.2478 38.2569ZM85.5255 62.1147L88.0015 71.2579L69.0668 76.4733L85.5255 62.1147ZM44.307 57.5192L54.4585 44.2564H72.0882L83.3565 57.5192H44.307ZM82.0508 60.7971L63.6956 76.8088L44.9985 60.7971H82.0508ZM51.0589 43.3062L41.9874 55.1575L39.202 38.3217L51.0589 43.3062ZM58.2584 76.4676L39.1434 71.2625L41.7627 62.3399L58.2584 76.4676ZM61.7877 80.8248L58.1794 84.7959C55.1216 81.8911 51.7596 79.3121 48.1706 77.117L61.7877 80.8248ZM79.2905 77.0562C75.7015 79.2877 72.3475 81.9002 69.3084 84.8323L65.624 80.8203L79.2905 77.0562ZM92.4361 33.0643L72.5317 40.9791H53.9797L35 33L39.3112 59.0558L35.1712 73.1596L45.9727 79.6175C51.0874 82.6753 55.6687 86.5014 59.5891 90.9883L63.7951 95.8027L68.2092 90.7397C71.9966 86.3962 76.4073 82.6668 81.319 79.6556L91.9118 73.1596L88.097 59.0751L92.4361 33.0643Z" fill="white"/>
</g>
</svg>
