<svg width="128" height="128" viewBox="0 0 128 128" fill="none" xmlns="http://www.w3.org/2000/svg">
<path d="M64 128C99.3461 128 128 99.3461 128 64C128 28.6538 99.3461 0 64 0C28.6538 0 0 28.6538 0 64C0 99.3461 28.6538 128 64 128Z" fill="white"/>
<mask id="mask0_6270_346541" style="mask-type:alpha" maskUnits="userSpaceOnUse" x="0" y="0" width="128" height="128">
<path d="M64 128C99.3461 128 128 99.3461 128 64C128 28.6538 99.3461 0 64 0C28.6538 0 0 28.6538 0 64C0 99.3461 28.6538 128 64 128Z" fill="#2B3165"/>
</mask>
<g mask="url(#mask0_6270_346541)">
</g>
<g clip-path="url(#clip0_6270_346541)">
<path d="M105.917 41.8512L78.7281 56.1403V72.708L88.0794 67.7301V77.3386L61.7294 92.5541L40.5537 80.3227C38.9799 79.4141 37.6731 78.1071 36.7647 76.5331C35.8563 74.9592 35.3784 73.1738 35.3789 71.3566V46.9052L57.2339 34.2861C58.6004 33.4971 60.1504 33.0818 61.7283 33.0818C63.3062 33.0818 64.8563 33.4971 66.2227 34.2861L88.0781 46.9052L101.457 39.1797L67.4093 19.5209C65.6807 18.5245 63.7206 18 61.7254 18C59.7302 18 57.77 18.5245 56.0415 19.5209L22 39.1823V79.0656C22.0001 80.8885 22.4798 82.6792 23.3911 84.2579C24.3024 85.8366 25.6131 87.1477 27.1915 88.0594L61.731 108.001L96.221 88.0888C97.8143 87.1693 99.1374 85.8464 100.057 84.2532C100.977 82.66 101.461 80.8528 101.46 79.0132V60.613L105.915 58.2449V41.8512H105.917Z" fill="#D35756"/>
</g>
<defs>
<clipPath id="clip0_6270_346541">
<rect width="83.9173" height="90" fill="white" transform="translate(22 18)"/>
</clipPath>
</defs>
</svg>
