<svg width="128" height="128" viewBox="0 0 128 128" fill="none" xmlns="http://www.w3.org/2000/svg">
<path d="M64 128C99.3462 128 128 99.3462 128 64C128 28.6538 99.3462 0 64 0C28.6538 0 0 28.6538 0 64C0 99.3462 28.6538 128 64 128Z" fill="#3D5ECB"/>
<path d="M64.0108 36.3402L88.0213 50.1206V77.7914L64.077 91.6598L40.0665 77.9014V50.2307L64.0108 36.3402ZM64.0108 16L55.1996 21.1071L31.2111 34.9974L22.3999 40.1046V50.2746V77.9235V88.0934L31.2111 93.1568L55.2217 106.937L64.0329 112L72.8444 106.893L96.7887 93.0026L105.6 87.9174V77.7475V50.0765V39.9066L96.7887 34.8435L72.7781 21.0631L63.9669 16H64.0108Z" fill="white"/>
</svg>
