<svg width="128" height="128" viewBox="0 0 128 128" fill="none" xmlns="http://www.w3.org/2000/svg">
<path d="M64 128C99.3462 128 128 99.3462 128 64C128 28.6538 99.3462 0 64 0C28.6538 0 0 28.6538 0 64C0 99.3462 28.6538 128 64 128Z" fill="black"/>
<mask id="mask0_6270_346686" style="mask-type:alpha" maskUnits="userSpaceOnUse" x="0" y="0" width="128" height="128">
<circle cx="64" cy="64" r="64" fill="#C4C4C4"/>
</mask>
<g mask="url(#mask0_6270_346686)">
</g>
<path d="M45.3362 48.3175C55.6439 38.109 72.356 38.109 82.6636 48.3175L91.5675 57.1357L82.6636 65.9537C72.356 76.1625 55.6439 76.1625 45.3362 65.9537L36.4324 57.1357L45.3362 48.3175Z" fill="black"/>
<path fill-rule="evenodd" clip-rule="evenodd" d="M30 57.1495L50.2162 37H77.7838L98 57.1495L64 91L30 57.1495ZM79.6216 49.8136C71.0319 41.2205 56.9682 41.2206 48.3784 49.8136L41.0271 57.1357L48.3784 64.4576C56.9682 73.0509 71.0319 73.0509 79.6216 64.4576L86.973 57.1357L79.6216 49.8136Z" fill="#0CE466"/>
<path d="M64.0001 63.5426C60.449 63.5426 57.5676 60.6756 57.5676 57.1358C57.5676 53.596 60.449 50.729 64.0001 50.729C67.5511 50.729 70.4325 53.596 70.4325 57.1358C70.4325 60.6756 67.5511 63.5426 64.0001 63.5426Z" fill="black"/>
<path fill-rule="evenodd" clip-rule="evenodd" d="M53.4324 57.1358C53.4324 62.9513 58.166 67.6612 63.9999 67.6612C69.8338 67.6612 74.5675 62.9513 74.5675 57.1358C74.5675 51.3204 69.8339 46.6104 63.9999 46.6104C58.166 46.6104 53.4324 51.3204 53.4324 57.1358ZM59.4054 57.1358C59.4054 59.6642 61.4635 61.712 64 61.712C66.5365 61.712 68.5946 59.6642 68.5946 57.1358C68.5946 54.6073 66.5365 52.5595 64 52.5595C61.4635 52.5595 59.4054 54.6073 59.4054 57.1358Z" fill="white"/>
</svg>
