<svg width="128" height="128" viewBox="0 0 128 128" fill="none" xmlns="http://www.w3.org/2000/svg">
<mask id="mask0_6248_325816" style="mask-type:alpha" maskUnits="userSpaceOnUse" x="0" y="0" width="128" height="128">
<circle cx="64" cy="64" r="64" fill="#D9D9D9"/>
</mask>
<g mask="url(#mask0_6248_325816)">
<path d="M64.8715 78.5891C64.0124 76.8715 62.2948 74.724 60.5766 73.0059C60.1473 73.4357 59.7175 74.724 59.7175 75.1533C59.2882 76.8715 60.1473 76.8715 61.865 77.3008C62.724 77.3008 63.5831 77.7305 64.8715 78.5891Z" fill="url(#paint0_linear_6248_325816)"/>
<path fill-rule="evenodd" clip-rule="evenodd" d="M65.3012 3.42949C38.2435 6.00641 16.3397 26.6218 12.0448 53.2499C13.7628 53.2499 15.0512 52.8204 15.4807 52.8204C15.4807 50.2435 16.3397 45.5192 19.3461 42.5127C27.9359 23.1859 46.8333 9.87178 69.1663 9.87178C99.2306 9.87178 123.711 34.3525 123.711 64.8462C123.711 87.609 109.968 106.936 90.6408 115.525C105.243 106.506 115.122 89.7565 115.122 70.8587C115.122 42.0832 91.9292 18.4615 63.1538 18.4615C44.6858 18.4615 28.7948 27.9102 19.7756 42.5127C20.6346 41.6538 21.923 41.2243 23.2115 41.2243C22.782 45.9487 26.2179 47.2371 29.2243 44.6602C30.5127 42.0833 32.2307 39.5064 34.8076 37.7884C37.814 36.0704 41.6793 35.641 44.6858 35.641C47.2626 35.641 49.8398 36.4999 51.9873 37.3589C51.5575 35.641 48.9807 33.4936 48.5509 33.4936C54.9933 30.0576 65.7305 34.3525 67.0189 41.6538C67.4487 38.2179 67.0189 34.782 67.0189 34.782C73.4612 37.3589 73.891 46.3781 73.4612 49.3845L82.051 41.6538L73.891 60.1215C74.3203 60.5513 74.3203 61.4104 74.7496 62.269L75.1794 62.6988C75.6087 63.9871 76.0385 64.8462 76.4678 66.1346C76.8971 66.9936 77.3269 67.8522 77.7561 69.1411C77.7561 69.9997 77.3269 71.2885 76.8971 73.0062C76.4678 74.7244 76.0385 76.442 76.0385 77.3011C76.4678 79.0193 76.4678 80.7369 76.8971 82.4551C77.3269 85.0318 78.1859 87.6091 79.0445 89.3267C79.4743 90.1858 79.4743 91.0449 79.9036 91.4741C82.4808 93.6216 82.4808 97.4872 82.4808 99.2049C82.4808 102.211 78.1859 105.218 76.4678 106.506C76.0385 106.506 76.0385 106.936 75.6087 106.936C74.3203 107.795 73.032 108.224 72.1729 108.654C71.3138 109.083 70.4552 109.083 69.5961 109.083C67.0189 109.083 60.5766 105.218 59.718 103.93C59.2882 103.5 58.8589 101.352 58.4296 99.2049C57.9998 97.4872 57.5705 95.769 57.1407 94.4807C56.2822 92.3332 55.4231 91.9039 54.564 91.0449C53.2756 90.1858 51.9873 89.3267 49.8398 86.3202C48.9807 88.0383 46.8333 93.1923 45.5449 100.064C45.1151 102.211 45.1151 105.647 45.1151 109.942C45.1151 112.09 45.1151 114.237 44.6858 116.384C52.8458 120.25 61.4356 122.827 70.8845 122.827C94.9357 122.827 115.551 108.224 125 87.609C117.699 117.673 91.0701 140.006 58.8589 140.006C21.4936 140.436 -9 109.513 -9 71.7178C-9 33.923 21.4936 3 58.8589 3C61.0063 3 63.1538 3 65.3012 3.42949ZM11.6154 56.2564C11.6154 57.9741 11.1859 60.1215 11.1859 61.8397C12.4743 61.4104 14.1923 61.4104 15.4807 61.4104H15.0512C13.7628 61.8397 12.4743 62.269 11.1859 62.6988V63.128C11.1859 68.282 11.6154 73.0062 12.9038 77.7309C12.9038 77.3011 12.9038 76.8718 12.9038 76.0127C12.9038 75.5834 13.7628 71.2885 17.6282 65.7048C17.6282 66.1346 17.6282 66.9936 17.1987 67.4229C16.7692 69.5704 16.3397 71.7178 17.1987 74.2946C17.1987 72.1471 18.4871 65.7048 22.782 63.5578C21.4936 65.7048 20.6346 72.1471 21.923 73.8653C21.923 70.4295 24.0704 66.9936 27.0769 64.8462C29.2243 63.128 39.9617 57.1155 39.9617 57.1155C39.9617 57.1155 37.814 66.1346 42.5384 66.9936C41.6793 64.8462 42.9677 60.9806 45.1151 58.4039C45.9742 57.5448 47.2626 56.6857 48.1217 56.2564V55.8266C47.6924 53.6794 47.6924 51.1025 48.5509 49.3845C49.41 50.2435 51.1282 51.1025 52.8458 51.532C54.564 51.9615 56.2822 52.8204 57.9998 53.6794C59.2882 54.5382 60.1473 56.2564 61.0064 57.9741L61.8654 59.2629L62.2947 60.1215V59.6922L69.1663 52.8204C70.8845 49.814 71.3138 42.0833 67.878 38.6474C67.878 40.7948 67.878 50.2435 64.4422 51.9615C67.0189 45.9487 64.4422 34.782 51.5575 34.782C53.7049 36.4999 55.4231 39.5064 56.2822 41.2243C58.8589 41.6538 59.2882 42.9422 60.1473 43.8012L59.718 43.3717C58.4296 42.0833 54.564 38.2179 45.5449 38.2179C42.5384 38.2179 39.5319 38.6474 36.955 39.9359C41.25 38.6474 45.9742 41.2243 49.8398 43.8012C49.41 43.8012 48.5509 43.3717 48.1217 42.9422C45.5449 42.0832 42.5384 40.3653 38.2435 41.2243C36.0961 41.6538 34.8076 42.9422 33.0897 44.6602C32.2307 45.5192 31.3717 46.3781 30.0833 47.2371C27.5064 48.5255 24.0704 48.5255 22.782 45.9487C21.9231 45.5192 21.4936 44.6602 21.4936 43.8012C20.6346 44.6602 20.2051 45.5192 19.7756 46.3781C18.4871 48.0961 18.0576 50.673 18.4871 52.8204C19.7756 52.8204 21.0641 52.8204 22.3525 52.8204C23.641 52.8204 24.9294 53.2499 26.2179 52.8204C27.9359 52.3909 30.0833 51.9615 31.3717 51.1025C31.8012 50.673 32.6602 50.2435 33.0897 49.814C32.6602 50.2435 32.6602 50.673 32.2307 51.1025C30.9422 52.8204 29.2243 53.6794 27.0769 54.1089C25.3589 54.5382 23.641 54.5382 21.923 54.1089C20.6346 54.1089 18.9166 53.6794 17.6282 54.1089C16.7692 54.1089 15.9102 54.5382 15.0512 54.968C14.1923 55.3973 12.9038 55.8266 11.6154 56.2564ZM73.4612 52.3909L77.7561 48.0961L70.0254 63.9871C69.1663 64.4164 67.878 63.9871 66.5896 63.128C65.7305 62.269 64.8715 61.4104 65.3012 60.5513L67.0189 58.8331C67.0189 59.2629 67.4487 59.6922 67.878 60.1215C68.7371 60.9806 69.5961 61.4104 70.8845 60.9806C70.4552 60.9806 70.0254 60.9806 70.0254 60.5513C68.7371 60.1215 68.3078 58.8331 67.878 57.9741L70.4552 55.3973C70.8845 56.2564 71.7436 57.1155 73.032 56.6857C72.1729 56.6857 71.3138 55.3973 70.8845 54.5382L72.6027 52.3909C73.032 52.8204 73.4612 52.8204 73.891 52.8204C73.891 53.2499 73.4612 52.8204 73.4612 52.3909ZM59.2882 77.3011C58.4296 76.442 58.4296 75.5834 58.4296 74.2946C58.4296 73.436 58.8589 72.1471 59.718 71.2885C58.8589 70.4295 57.5705 69.9997 56.2822 69.9997C59.2882 69.1411 61.4356 70.4295 63.5831 72.5769C64.8714 73.8653 66.5896 77.3011 67.0189 78.5895C67.4487 79.8778 70.0254 79.0193 70.0254 79.0193C69.5961 79.8778 68.3078 80.7369 67.0189 80.7369C66.1603 80.7369 66.1603 80.3076 65.7305 79.8778V79.4485C64.4422 79.0193 63.1538 78.5895 61.8654 78.1602C60.5765 78.1602 59.718 77.7309 59.2882 77.3011ZM75.1794 98.3458C74.7496 95.769 74.3203 94.0509 73.032 94.0509C73.032 94.0509 73.4612 93.1923 74.3203 93.6216C75.6087 94.4807 75.1794 96.6281 75.1794 98.3458ZM76.0385 98.7756C76.4678 96.6281 75.6087 91.9039 73.4612 91.9039C72.1729 91.9039 71.3138 92.3332 70.8845 92.7625L70.4552 93.1923C70.4552 92.7625 70.4552 92.7625 70.4552 92.3332C70.4552 90.1858 69.5961 88.4676 68.7371 86.3202C68.3078 85.4616 68.3078 85.0318 67.878 84.1727C69.5961 85.8909 70.8845 88.0383 71.7436 90.1858C72.1729 89.7565 73.032 89.7565 73.891 90.6151C77.3269 92.3332 77.3269 97.0574 76.0385 98.7756ZM71.3138 103.5C68.7371 102.641 63.5831 100.493 63.5831 99.2049C63.5831 98.3458 63.5831 97.0574 64.4422 96.6281C64.8714 97.9165 66.1603 98.7756 67.878 99.6347C67.878 99.6347 65.7305 97.4872 65.7305 95.769H66.1603C67.0189 95.769 67.4487 97.0574 67.878 98.3458C68.3078 100.064 69.5961 102.211 71.3138 103.5ZM64.0129 80.3076C62.2947 81.1667 59.718 80.7369 58.4296 79.8778C56.7115 79.0193 55.8524 76.8718 55.8524 75.1536C56.2822 75.5834 56.2822 76.0127 56.2822 76.442C56.7115 77.7309 57.5705 78.5895 58.8589 79.4485C59.718 79.8778 61.4356 80.3076 62.724 80.3076C63.1538 80.3076 63.5831 80.3076 64.0129 80.3076ZM27.9359 95.3398C27.9359 96.6281 27.9359 97.4872 27.9359 98.3458C26.6474 96.6281 26.2179 94.4807 26.6474 92.3332C27.5064 80.7369 36.955 73.0062 37.3845 72.5769C31.3717 80.7369 29.2243 87.1792 28.3653 91.4741C27.9359 92.3332 27.9359 94.0509 27.9359 95.3398Z" fill="url(#paint1_linear_6248_325816)"/>
<path d="M99.66 70.8583C99.66 90.6146 88.4935 108.224 72.6028 116.813C93.2177 112.089 108.25 93.6212 108.25 71.7174C108.25 51.5314 95.3651 34.352 77.7563 27.9097C91.0702 37.3584 99.66 53.2494 99.66 70.8583Z" fill="url(#paint2_linear_6248_325816)"/>
<path d="M86.3457 69.9996C86.3457 69.9996 85.9165 66.134 84.6276 64.8457C83.3392 63.5573 79.4741 63.1275 79.4741 63.1275C79.4741 63.1275 82.9099 62.6982 84.6276 61.4098C85.9165 60.1215 86.3457 56.2559 86.3457 56.2559C86.3457 56.2559 86.775 60.1215 88.0639 61.4098C89.3523 62.6982 93.2174 63.1275 93.2174 63.1275C93.2174 63.1275 89.7816 63.5573 88.0639 64.8457C86.3457 66.134 86.3457 69.9996 86.3457 69.9996Z" fill="url(#paint3_linear_6248_325816)"/>
<path d="M50.6989 109.083C51.9872 110.372 51.9872 112.949 51.9872 112.949C51.9872 112.949 51.9872 110.372 53.2756 109.083C54.564 107.795 57.1412 107.795 57.1412 107.795C57.1412 107.795 54.564 107.795 53.2756 106.507C51.9872 105.218 51.9872 102.641 51.9872 102.641C51.9872 102.641 51.9872 105.218 50.6989 106.507C49.4105 107.795 46.8333 107.795 46.8333 107.795C46.8333 107.795 49.8398 107.795 50.6989 109.083Z" fill="url(#paint4_linear_6248_325816)"/>
<path d="M91.0698 80.3072C91.0698 80.3072 91.0698 78.589 90.2108 77.7304C89.3522 76.8714 87.634 76.8714 87.634 76.8714C87.634 76.8714 89.3522 76.8714 90.2108 76.0123C91.0698 75.1532 91.0698 73.4355 91.0698 73.4355C91.0698 73.4355 91.0698 75.1532 91.9289 76.0123C92.788 76.8714 94.5057 76.8714 94.5057 76.8714C94.5057 76.8714 92.788 76.8714 91.9289 77.7304C91.4996 78.589 91.0698 80.3072 91.0698 80.3072Z" fill="url(#paint5_linear_6248_325816)"/>
</g>
<defs>
<linearGradient id="paint0_linear_6248_325816" x1="62.24" y1="73.0059" x2="62.24" y2="78.5891" gradientUnits="userSpaceOnUse">
<stop/>
<stop offset="0.5" stop-color="#1E4169"/>
<stop offset="1" stop-color="#3A619D"/>
</linearGradient>
<linearGradient id="paint1_linear_6248_325816" x1="57.9998" y1="3" x2="57.9998" y2="140.01" gradientUnits="userSpaceOnUse">
<stop/>
<stop offset="0.5" stop-color="#1E4169"/>
<stop offset="1" stop-color="#3A619D"/>
</linearGradient>
<linearGradient id="paint2_linear_6248_325816" x1="90.426" y1="27.9097" x2="90.426" y2="116.813" gradientUnits="userSpaceOnUse">
<stop/>
<stop offset="0.5" stop-color="#1E4169"/>
<stop offset="1" stop-color="#3A619D"/>
</linearGradient>
<linearGradient id="paint3_linear_6248_325816" x1="86.3458" y1="56.2559" x2="86.3458" y2="69.9996" gradientUnits="userSpaceOnUse">
<stop/>
<stop offset="0.5" stop-color="#1E4169"/>
<stop offset="1" stop-color="#3A619D"/>
</linearGradient>
<linearGradient id="paint4_linear_6248_325816" x1="51.9872" y1="102.641" x2="51.9872" y2="112.949" gradientUnits="userSpaceOnUse">
<stop/>
<stop offset="0.5" stop-color="#1E4169"/>
<stop offset="1" stop-color="#3A619D"/>
</linearGradient>
<linearGradient id="paint5_linear_6248_325816" x1="91.0698" y1="73.4355" x2="91.0698" y2="80.3072" gradientUnits="userSpaceOnUse">
<stop/>
<stop offset="0.5" stop-color="#1E4169"/>
<stop offset="1" stop-color="#3A619D"/>
</linearGradient>
</defs>
</svg>
