<svg width="128" height="128" viewBox="0 0 128 128" fill="none" xmlns="http://www.w3.org/2000/svg">
<mask id="mask0_6270_346677" style="mask-type:alpha" maskUnits="userSpaceOnUse" x="0" y="0" width="128" height="128">
<circle cx="64" cy="64" r="64" fill="#C4C4C4"/>
</mask>
<g mask="url(#mask0_6270_346677)">
</g>
<path d="M64 128C99.3462 128 128 99.3462 128 64C128 28.6538 99.3462 0 64 0C28.6538 0 0 28.6538 0 64C0 99.3462 28.6538 128 64 128Z" fill="white"/>
<path d="M30.6667 55.6665H39V47.3332H30.6667V55.6665Z" fill="#FED955"/>
<path d="M30.6667 72.3335H39V64.0002H30.6667V72.3335Z" fill="#FED955"/>
<path d="M30.6667 64H39V55.6667H30.6667V64Z" fill="#FED955"/>
<path d="M30.6667 80.6665H39V72.3332H30.6667V80.6665Z" fill="#FED955"/>
<path d="M64 39H72.3334V30.6667H64V39Z" fill="#FED955"/>
<path d="M64 89L72.3334 89L72.3334 97.3333L64 97.3333L64 89Z" fill="#FED955"/>
<path d="M72.3333 39H80.6666V30.6667H72.3333V39Z" fill="#FED955"/>
<path d="M80.6667 39H89V30.6667H80.6667V39Z" fill="#9695F8"/>
<path d="M47.3333 39L39 39L39 30.6667L47.3333 30.6667L47.3333 39Z" fill="#9695F8"/>
<path d="M97.3333 89L89 89L89 80.6667L97.3333 80.6667L97.3333 89Z" fill="#9695F8"/>
<path d="M30.6667 89H39V80.6667H30.6667V89Z" fill="#9695F8"/>
<path d="M72.3333 30.6665H80.6666V22.3332H72.3333V30.6665Z" fill="#9695F8"/>
<path d="M72.3333 22.3335H80.6666V14.0002L72.3333 14.0002V22.3335Z" fill="#5552FD"/>
<path d="M72.3333 114H80.6666V105.667H72.3333V114Z" fill="#5552FD"/>
<path d="M72.3333 105.667H80.6666V97.3332H72.3333V105.667Z" fill="#9695F8"/>
<path d="M55.6667 30.6665H64V22.3332H55.6667V30.6665Z" fill="#9695F8"/>
<path d="M55.6667 22.3335H64V14.0002L55.6667 14.0002V22.3335Z" fill="#5552FD"/>
<path d="M55.6667 114H64V105.667H55.6667V114Z" fill="#5552FD"/>
<path d="M55.6667 105.667H64V97.3332H55.6667V105.667Z" fill="#9695F8"/>
<path d="M64 30.6665H72.3334V22.3332H64V30.6665Z" fill="#9695F8"/>
<path d="M64 22.3335H72.3334V14.0002L64 14.0002V22.3335Z" fill="#5552FD"/>
<path d="M64 114H72.3334V105.667H64V114Z" fill="#5552FD"/>
<path d="M64 105.667H72.3334V97.3332H64V105.667Z" fill="#9695F8"/>
<path d="M47.3333 30.6665H55.6666V22.3332H47.3333V30.6665Z" fill="#9695F8"/>
<path d="M47.3333 22.3335H55.6666V14.0002L47.3333 14.0002V22.3335Z" fill="#5552FD"/>
<path d="M47.3333 114H55.6666V105.667H47.3333V114Z" fill="#5552FD"/>
<path d="M47.3333 105.667H55.6666V97.3332H47.3333V105.667Z" fill="#9695F8"/>
<path d="M89 47.3335H97.3334V39.0002H89V47.3335Z" fill="#9695F8"/>
<path d="M39 47.3335L30.6666 47.3335L30.6666 39.0002L39 39.0002L39 47.3335Z" fill="#9695F8"/>
<path d="M89 97.3335L80.6666 97.3335L80.6666 89.0002L89 89.0002L89 97.3335Z" fill="#9695F8"/>
<path d="M39 97.3335H47.3334V89.0002H39V97.3335Z" fill="#9695F8"/>
<path d="M97.3333 55.6665H105.667V47.3332H97.3333V55.6665Z" fill="#9695F8"/>
<path d="M22.3333 55.6665H30.6666V47.3332H22.3333V55.6665Z" fill="#9695F8"/>
<path d="M14 55.6665H22.3334V47.3332H14L14 55.6665Z" fill="#5552FD"/>
<path d="M22.3333 47.3335H30.6666V39.0002H22.3333V47.3335Z" fill="#5552FD"/>
<path d="M105.667 47.3335L97.3334 47.3335L97.3334 39.0002L105.667 39.0002L105.667 47.3335Z" fill="#5552FD"/>
<path d="M80.6667 105.667H89V97.3332H80.6667V105.667Z" fill="#5552FD"/>
<path d="M22.3334 80.6667V89H30.6667V80.6667H22.3334Z" fill="#5552FD"/>
<path d="M30.6667 39H39V30.6667H30.6667V39Z" fill="#5552FD"/>
<path d="M97.3333 39L89 39L89 30.6667L97.3333 30.6667L97.3333 39Z" fill="#5552FD"/>
<path d="M89 97.3335H97.3334V89.0002H89V97.3335Z" fill="#5552FD"/>
<path d="M30.6666 89.0002V97.3335H39V89.0002H30.6666Z" fill="#5552FD"/>
<path d="M39 30.6665H47.3334V22.3332H39V30.6665Z" fill="#5552FD"/>
<path d="M89 30.6665L80.6666 30.6665L80.6666 22.3332L89 22.3332L89 30.6665Z" fill="#5552FD"/>
<path d="M97.3333 89H105.667V80.6667H97.3333V89Z" fill="#5552FD"/>
<path d="M39 97.3332V105.667H47.3333V97.3332H39Z" fill="#5552FD"/>
<path d="M105.667 55.6665H114V47.3332H105.667V55.6665Z" fill="#5552FD"/>
<path d="M97.3333 64H105.667V55.6667H97.3333V64Z" fill="#9695F8"/>
<path d="M22.3333 64H30.6666V55.6667H22.3333V64Z" fill="#9695F8"/>
<path d="M14 64H22.3334V55.6667H14L14 64Z" fill="#5552FD"/>
<path d="M105.667 64H114V55.6667H105.667V64Z" fill="#5552FD"/>
<path d="M97.3333 72.3335H105.667V64.0002H97.3333V72.3335Z" fill="#9695F8"/>
<path d="M22.3333 72.3335H30.6666V64.0002H22.3333V72.3335Z" fill="#9695F8"/>
<path d="M14 72.3335H22.3334V64.0002H14L14 72.3335Z" fill="#5552FD"/>
<path d="M105.667 72.3335H114V64.0002H105.667V72.3335Z" fill="#5552FD"/>
<path d="M97.3333 80.6665H105.667V72.3332H97.3333V80.6665Z" fill="#9695F8"/>
<path d="M22.3333 80.6665H30.6666V72.3332H22.3333V80.6665Z" fill="#9695F8"/>
<path d="M14 80.6665H22.3334V72.3332H14L14 80.6665Z" fill="#5552FD"/>
<path d="M105.667 80.6665H114V72.3332H105.667V80.6665Z" fill="#5552FD"/>
<path d="M72.3333 89L80.6666 89L80.6666 97.3333L72.3333 97.3333L72.3333 89Z" fill="#FED955"/>
<path d="M64 55.6665H72.3334V47.3332H64V55.6665Z" fill="#FED955"/>
<path d="M64 72.3335H72.3334V64.0002H64V72.3335Z" fill="#FED955"/>
<path d="M64 80.6665H72.3334V72.3332H64V80.6665Z" fill="#FED955"/>
<path d="M64 47.3335H72.3334V39.0002H64V47.3335Z" fill="#FED955"/>
<path d="M64 80.6665L72.3334 80.6665L72.3334 88.9998L64 88.9998L64 80.6665Z" fill="#FED955"/>
<path d="M47.3333 72.3335H55.6666V64.0002H47.3333V72.3335Z" fill="#FED955"/>
<path d="M47.3333 64H55.6666V55.6667H47.3333V64Z" fill="#FED955"/>
<path d="M47.3333 80.6665H55.6666V72.3332H47.3333V80.6665Z" fill="#FED955"/>
<path d="M47.3333 47.3335H55.6666V39.0002H47.3333V47.3335Z" fill="#FED955"/>
<path d="M47.3333 80.6665L55.6666 80.6665L55.6666 88.9998L47.3333 88.9998L47.3333 80.6665Z" fill="#FED955"/>
<path d="M72.3333 72.3335H80.6666V64.0002H72.3333V72.3335Z" fill="#FED955"/>
<path d="M72.3333 64H80.6666V55.6667H72.3333V64Z" fill="#FED955"/>
<path d="M72.3333 80.6665H80.6666V72.3332H72.3333V80.6665Z" fill="#FED955"/>
<path d="M72.3333 47.3335H80.6666V39.0002H72.3333V47.3335Z" fill="#FED955"/>
<path d="M72.3333 80.6665L80.6666 80.6665L80.6666 88.9998L72.3333 88.9998L72.3333 80.6665Z" fill="#FED955"/>
<path d="M55.6667 39H64V30.6667H55.6667V39Z" fill="#FED955"/>
<path d="M55.6667 89L64 89L64 97.3333L55.6667 97.3333L55.6667 89Z" fill="#FED955"/>
<path d="M47.3333 39H55.6666V30.6667H47.3333V39Z" fill="#FED955"/>
<path d="M47.3333 89L55.6666 89L55.6666 97.3333L47.3333 97.3333L47.3333 89Z" fill="#FED955"/>
<path d="M55.6667 55.6665H64V47.3332H55.6667V55.6665Z" fill="#FED955"/>
<path d="M55.6667 72.3335H64V64.0002H55.6667V72.3335Z" fill="#FED955"/>
<path d="M47.3333 55.6665H55.6666V47.3332H47.3333V55.6665Z" fill="#5552FD"/>
<path d="M64 64H72.3334V55.6667H64V64Z" fill="#5552FD"/>
<path d="M80.6667 55.6665H89V47.3332H80.6667V55.6665Z" fill="#5552FD"/>
<path d="M80.6667 72.3335H89V64.0002H80.6667V72.3335Z" fill="#5552FD"/>
<path d="M80.6667 64H89V55.6667H80.6667V64Z" fill="#5552FD"/>
<path d="M80.6667 80.6665H89V72.3332H80.6667V80.6665Z" fill="#5552FD"/>
<path d="M80.6667 47.3335H89V39.0002H80.6667V47.3335Z" fill="#5552FD"/>
<path d="M80.6667 80.6665L89 80.6665L89 88.9998L80.6667 88.9998L80.6667 80.6665Z" fill="#5552FD"/>
<path d="M39 55.6665H47.3334V47.3332H39V55.6665Z" fill="#5552FD"/>
<path d="M39 72.3335H47.3334V64.0002H39V72.3335Z" fill="#5552FD"/>
<path d="M39 64H47.3334V55.6667H39V64Z" fill="#5552FD"/>
<path d="M39 80.6665H47.3334V72.3332H39V80.6665Z" fill="#5552FD"/>
<path d="M39 47.3335H47.3334V39.0002H39V47.3335Z" fill="#5552FD"/>
<path d="M39 80.6665L47.3334 80.6665L47.3334 88.9998L39 88.9998L39 80.6665Z" fill="#5552FD"/>
<path d="M72.3333 55.6665H80.6666V47.3332H72.3333V55.6665Z" fill="#5552FD"/>
<path d="M55.6667 64H64V55.6667H55.6667V64Z" fill="#5552FD"/>
<path d="M55.6667 80.6665H64V72.3332H55.6667V80.6665Z" fill="#FED955"/>
<path d="M55.6667 47.3335H64V39.0002H55.6667V47.3335Z" fill="#FED955"/>
<path d="M55.6667 80.6665L64 80.6665L64 88.9998L55.6667 88.9998L55.6667 80.6665Z" fill="#FED955"/>
<path d="M89 55.6665H97.3334V47.3332H89V55.6665Z" fill="#FED955"/>
<path d="M89 72.3335H97.3334V64.0002H89V72.3335Z" fill="#FED955"/>
<path d="M89 64H97.3334V55.6667H89V64Z" fill="#FED955"/>
<path d="M89 80.6665H97.3334V72.3332H89V80.6665Z" fill="#FED955"/>
</svg>
