<svg width="128" height="128" viewBox="0 0 128 128" fill="none" xmlns="http://www.w3.org/2000/svg">
<g clip-path="url(#clip0_6248_325842)">
<path d="M64 128.003C99.3462 128.003 128 99.3492 128 64.0029C128 28.6567 99.3462 0.00292969 64 0.00292969C28.6538 0.00292969 0 28.6567 0 64.0029C0 99.3492 28.6538 128.003 64 128.003Z" fill="#F2F5FF"/>
<path d="M44.4488 60.4971L43.8941 61.348C37.6384 70.9443 39.0354 83.512 47.253 91.5637C52.0874 96.3005 58.4234 98.6693 64.7594 98.6699C64.7594 98.6699 64.7594 98.6699 44.4488 60.4971Z" fill="#00A3FF"/>
<path opacity="0.6" d="M64.7536 72.0987L44.4426 60.4971C64.7536 98.6699 64.7536 98.6699 64.7536 98.6699C64.7536 90.356 64.7536 80.8296 64.7536 72.0987Z" fill="#00A3FF"/>
<path opacity="0.6" d="M85.0932 60.4971L85.6478 61.348C91.9033 70.9443 90.5062 83.512 82.2886 91.5637C77.4545 96.3005 71.1185 98.6693 64.7822 98.6699C64.7822 98.6699 64.7822 98.6699 85.0932 60.4971Z" fill="#00A3FF"/>
<path opacity="0.2" d="M64.7803 72.0987L85.0912 60.4971C64.7803 98.6699 64.7803 98.6699 64.7803 98.6699C64.7803 90.356 64.7803 80.8296 64.7803 72.0987Z" fill="#00A3FF"/>
<path opacity="0.2" d="M64.7864 46.1807V66.1905L82.2818 56.1921L64.7864 46.1807Z" fill="#00A3FF"/>
<path opacity="0.6" d="M64.7817 46.1807L47.2734 56.1919L64.7817 66.1905V46.1807Z" fill="#00A3FF"/>
<path d="M64.7817 29.3525L47.2734 56.1981L64.7817 46.1589V29.3525Z" fill="#00A3FF"/>
<path opacity="0.6" d="M64.7864 46.1559L82.2954 56.1954L64.7864 29.3364V46.1559Z" fill="#00A3FF"/>
</g>
<defs>
<clipPath id="clip0_6248_325842">
<rect width="128" height="128" fill="white"/>
</clipPath>
</defs>
</svg>
