<svg width="18" height="18" viewBox="0 0 18 18" fill="none" xmlns="http://www.w3.org/2000/svg">
<path d="M9 18C13.9706 18 18 13.9706 18 9C18 4.02944 13.9706 0 9 0C4.02944 0 0 4.02944 0 9C0 13.9706 4.02944 18 9 18Z" fill="#EA7689"/>
<mask id="mask0_5946_301023" style="mask-type:alpha" maskUnits="userSpaceOnUse" x="0" y="0" width="18" height="18">
<path d="M9 18C13.9706 18 18 13.9706 18 9C18 4.02944 13.9706 0 9 0C4.02944 0 0 4.02944 0 9C0 13.9706 4.02944 18 9 18Z" fill="white"/>
</mask>
<g mask="url(#mask0_5946_301023)">
<path d="M3.16078 11C3.18878 11 3.21678 10.972 3.24478 10.916C3.27278 10.86 3.28678 10.768 3.28678 10.64V7.76C3.28678 7.632 3.27278 7.542 3.24478 7.49C3.21678 7.434 3.18878 7.404 3.16078 7.4H4.09078C4.08678 7.412 4.10078 7.448 4.13278 7.508C4.16878 7.568 4.23278 7.656 4.32478 7.772C4.35278 7.808 4.41078 7.88 4.49878 7.988C4.59078 8.096 4.70478 8.23 4.84078 8.39C4.97678 8.546 5.12278 8.718 5.27878 8.906C5.43878 9.09 5.59878 9.278 5.75878 9.47C5.92278 9.658 6.07878 9.838 6.22678 10.01H6.23878V7.76C6.23878 7.632 6.22478 7.542 6.19678 7.49C6.16878 7.434 6.14078 7.404 6.11278 7.4H7.03678C7.00878 7.4 6.98078 7.428 6.95278 7.484C6.92478 7.54 6.91078 7.634 6.91078 7.766V10.64C6.91078 10.768 6.92478 10.86 6.95278 10.916C6.98078 10.972 7.00878 11 7.03678 11H6.25078C6.25478 10.988 6.23878 10.952 6.20278 10.892C6.16678 10.828 6.10278 10.74 6.01078 10.628C5.95078 10.552 5.86278 10.446 5.74678 10.31C5.63478 10.17 5.50678 10.012 5.36278 9.836C5.21878 9.656 5.06478 9.468 4.90078 9.272C4.74078 9.076 4.58078 8.88 4.42078 8.684C4.26478 8.488 4.11678 8.306 3.97678 8.138H3.95878V10.64C3.95878 10.768 3.97278 10.86 4.00078 10.916C4.02878 10.972 4.05678 11 4.08478 11H3.16078ZM7.75453 11C7.78253 11 7.81053 10.972 7.83853 10.916C7.86653 10.86 7.88053 10.768 7.88053 10.64V7.76C7.88053 7.632 7.86653 7.542 7.83853 7.49C7.81053 7.434 7.78253 7.404 7.75453 7.4H11.1325V7.52L11.2525 8.096C11.1525 8.052 10.9765 8.006 10.7245 7.958C10.4725 7.906 10.1685 7.88 9.81253 7.88H8.79853C8.67853 7.88 8.60653 7.89 8.58253 7.91C8.56253 7.926 8.55253 7.976 8.55253 8.06V8.744C8.55253 8.832 8.56253 8.884 8.58253 8.9C8.60653 8.916 8.67653 8.924 8.79253 8.924H9.78253C10.0145 8.924 10.2005 8.912 10.3405 8.888C10.4845 8.86 10.5785 8.832 10.6225 8.804C10.6065 8.856 10.5885 8.918 10.5685 8.99C10.5485 9.062 10.5325 9.134 10.5205 9.206C10.5085 9.278 10.5025 9.344 10.5025 9.404H8.79253C8.67653 9.404 8.60653 9.412 8.58253 9.428C8.56253 9.44 8.55253 9.492 8.55253 9.584V10.64C8.55253 10.772 8.56653 10.866 8.59453 10.922C8.62253 10.974 8.65053 11 8.67853 11H7.75453ZM12.825 11C12.853 11 12.881 10.972 12.909 10.916C12.937 10.86 12.951 10.768 12.951 10.64V8.06C12.951 7.972 12.941 7.92 12.921 7.904C12.901 7.888 12.831 7.88 12.711 7.88H12.273C12.041 7.88 11.853 7.906 11.709 7.958C11.569 8.006 11.477 8.052 11.433 8.096L11.553 7.52V7.4H15.021V7.52L15.141 8.096C15.097 8.052 15.003 8.006 14.859 7.958C14.719 7.906 14.533 7.88 14.301 7.88H13.869C13.745 7.88 13.673 7.888 13.653 7.904C13.633 7.92 13.623 7.972 13.623 8.06V10.64C13.623 10.768 13.637 10.86 13.665 10.916C13.693 10.972 13.721 11 13.749 11H12.825Z" fill="white"/>
</g>
</svg>
