<svg width="128" height="128" viewBox="0 0 128 128" fill="none" xmlns="http://www.w3.org/2000/svg">
<path d="M64 128C99.3462 128 128 99.3462 128 64C128 28.6538 99.3462 0 64 0C28.6538 0 0 28.6538 0 64C0 99.3462 28.6538 128 64 128Z" fill="#6366F1"/>
<path d="M64 128C99.3462 128 128 99.3462 128 64C128 28.6538 99.3462 0 64 0C28.6538 0 0 28.6538 0 64C0 99.3462 28.6538 128 64 128Z" fill="#6366F1"/>
<path fill-rule="evenodd" clip-rule="evenodd" d="M31 33H97V96H31V33ZM45.6666 57.2427H53V71.7574H45.6666V57.2427ZM75 57.2427H82.3334V71.7574H75V57.2427Z" fill="white"/>
</svg>
