<svg width="128" height="128" viewBox="0 0 128 128" fill="none" xmlns="http://www.w3.org/2000/svg">
<path d="M128 64C128 99.3443 99.3443 128 64 128C28.6557 128 0 99.3443 0 64C0 28.6557 28.6557 0 64 0C99.3517 0 128 28.6557 128 64Z" fill="#2081E2"/>
<path d="M31.5775 66.1506L31.8536 65.7165L48.5026 39.6713C48.7459 39.29 49.3179 39.3295 49.502 39.7437C52.2834 45.9771 54.6835 53.7296 53.5591 58.556C53.0791 60.5417 51.764 63.231 50.2845 65.7165C50.0939 66.0783 49.8835 66.4333 49.6598 66.7752C49.5546 66.933 49.3771 67.0251 49.1864 67.0251H32.0641C31.6038 67.0251 31.3342 66.5254 31.5775 66.1506Z" fill="white"/>
<path d="M105.787 70.9902V75.1129C105.787 75.3496 105.642 75.56 105.432 75.6521C104.143 76.2044 99.7309 78.2296 97.8964 80.7809C93.2146 87.2971 89.6377 96.6145 81.6419 96.6145H48.2848C36.4624 96.6145 26.882 87.0013 26.882 75.1392V74.7579C26.882 74.4422 27.1383 74.1858 27.454 74.1858H46.0493C46.4174 74.1858 46.687 74.5277 46.6542 74.8893C46.5227 76.0992 46.7463 77.3354 47.3183 78.4597C48.423 80.702 50.7112 82.1026 53.1835 82.1026H62.3892V74.9157H53.2887C52.8219 74.9157 52.5458 74.3764 52.8154 73.9951C52.914 73.8438 53.0258 73.6861 53.1441 73.5086C54.0055 72.2855 55.2351 70.3853 56.4581 68.2219C57.2932 66.7622 58.1019 65.2038 58.7529 63.6389C58.8845 63.3561 58.9896 63.0667 59.0948 62.784C59.2724 62.2843 59.4566 61.8174 59.588 61.3506C59.7196 60.956 59.8247 60.5418 59.9299 60.1538C60.239 58.8256 60.3705 57.4185 60.3705 55.9588C60.3705 55.3867 60.3442 54.7883 60.2916 54.2163C60.2653 53.5916 60.1864 52.9669 60.1074 52.3422C60.0548 51.7899 59.9563 51.2441 59.851 50.6721C59.7196 49.837 59.5354 49.0086 59.325 48.1734L59.2526 47.8579C59.0948 47.2857 58.9634 46.7401 58.7793 46.168C58.2597 44.3728 57.6615 42.6238 57.0302 40.9866C56.8 40.3356 56.537 39.7109 56.274 39.0863C55.8861 38.146 55.4915 37.2912 55.1299 36.4824C54.9458 36.1141 54.788 35.7788 54.6302 35.4369C54.4526 35.0489 54.2686 34.661 54.0844 34.2928C53.9529 34.0101 53.8016 33.747 53.6964 33.484L52.5721 31.4062C52.4142 31.1234 52.6773 30.7881 52.9863 30.8736L60.0221 32.7804H60.0418C60.0548 32.7804 60.0615 32.787 60.068 32.787L60.9951 33.0434L62.0144 33.3328L62.3892 33.4379V29.256C62.3892 27.2373 64.0067 25.6001 66.0057 25.6001C67.0051 25.6001 67.9125 26.0078 68.5635 26.6718C69.2144 27.336 69.6221 28.2434 69.6221 29.256V35.4633L70.3717 35.6736C70.4309 35.6934 70.49 35.7197 70.5426 35.7591C70.7268 35.8972 70.9897 36.101 71.3251 36.3509C71.5881 36.5612 71.8709 36.8178 72.2128 37.0808C72.89 37.6265 73.6989 38.3301 74.5865 39.1389C74.8232 39.3427 75.0534 39.5531 75.2638 39.7636C76.408 40.8288 77.6901 42.0781 78.9132 43.4589C79.2551 43.8469 79.5904 44.2414 79.9323 44.6556C80.2742 45.0765 80.6359 45.4907 80.9515 45.905C81.3658 46.4573 81.8129 47.0293 82.2009 47.6277C82.3849 47.9105 82.5954 48.1998 82.7729 48.4825C83.2726 49.2386 83.7132 50.0212 84.1341 50.8037C84.3116 51.1653 84.4957 51.5598 84.6535 51.9477C85.1203 52.9932 85.4885 54.0585 85.7252 55.1237C85.7975 55.3538 85.8502 55.6037 85.8765 55.8273V55.8799C85.9554 56.1954 85.9817 56.5308 86.008 56.8727C86.1132 57.9643 86.0606 59.0557 85.8239 60.1538C85.7252 60.6208 85.5938 61.0612 85.4359 61.5282C85.2781 61.9753 85.1203 62.4421 84.9165 62.8827C84.522 63.7966 84.0551 64.7106 83.5028 65.5654C83.3252 65.8811 83.1148 66.2164 82.9044 66.5321C82.6742 66.8673 82.4375 67.1829 82.2271 67.4921C81.9378 67.8866 81.6288 68.3008 81.3132 68.669C81.0304 69.057 80.7412 69.445 80.4255 69.7868C79.9849 70.3063 79.5641 70.7995 79.1235 71.2729C78.8606 71.5819 78.5778 71.8976 78.2884 72.1803C78.0058 72.4958 77.7164 72.7786 77.4534 73.0416C77.0129 73.4822 76.6446 73.8241 76.3355 74.1068L75.6123 74.771C75.5071 74.8631 75.369 74.9157 75.2244 74.9157H69.6221V82.1026H76.6709C78.249 82.1026 79.7483 81.5436 80.9581 80.5179C81.3723 80.1563 83.1806 78.5913 85.3175 76.2308C85.3899 76.1518 85.482 76.0926 85.5872 76.0664L105.057 70.4379C105.419 70.3326 105.787 70.6087 105.787 70.9902Z" fill="white"/>
</svg>
